<mxfile host="app.diagrams.net" modified="2024-05-13T03:24:53.014Z" agent="Mozilla/5.0 (Windows NT 10.0; Win64; x64) AppleWebKit/537.36 (KHTML, like Gecko) Chrome/113.0.0.0 Safari/537.36" etag="VoFsUQ7UpeIIwULVh-r2" version="24.4.0" type="github">
  <diagram name="第 1 页" id="W9WQcyDblY8BYKCmj8dJ">
    <mxGraphModel dx="2160" dy="1328" grid="1" gridSize="10" guides="1" tooltips="1" connect="1" arrows="1" fold="1" page="1" pageScale="1" pageWidth="2339" pageHeight="3300" math="0" shadow="0">
      <root>
        <mxCell id="0" />
        <mxCell id="1" parent="0" />
        <mxCell id="NKMNRSQrKbPqfr3Vd2w4-25" value="&lt;font style=&quot;font-size: 18px;&quot;&gt;从GPU&amp;nbsp; &amp;nbsp; &amp;nbsp; &amp;nbsp; &amp;nbsp; &amp;nbsp; &amp;nbsp; &amp;nbsp; &amp;nbsp;&amp;nbsp;&lt;/font&gt;&lt;span style=&quot;font-size: 18px;&quot;&gt;&amp;nbsp; &amp;nbsp; &amp;nbsp; &amp;nbsp; &amp;nbsp; &amp;nbsp; &amp;nbsp; &amp;nbsp; &amp;nbsp;&amp;nbsp;&lt;/span&gt;&lt;span style=&quot;font-size: 18px;&quot;&gt;&amp;nbsp; &amp;nbsp; &amp;nbsp; &amp;nbsp; &amp;nbsp; &amp;nbsp; &amp;nbsp; &amp;nbsp; &amp;nbsp;&amp;nbsp;&lt;/span&gt;&lt;span style=&quot;font-size: 18px;&quot;&gt;&amp;nbsp; &amp;nbsp; &amp;nbsp; &amp;nbsp; &amp;nbsp; &amp;nbsp; &amp;nbsp; &amp;nbsp; &amp;nbsp;&amp;nbsp;&lt;/span&gt;&lt;span style=&quot;font-size: 18px;&quot;&gt;&amp;nbsp; &amp;nbsp; &amp;nbsp; &amp;nbsp; &amp;nbsp; &amp;nbsp; &amp;nbsp; &amp;nbsp; &amp;nbsp;&amp;nbsp;&lt;/span&gt;&lt;span style=&quot;font-size: 18px;&quot;&gt;&amp;nbsp; &amp;nbsp; &amp;nbsp; &amp;nbsp; &amp;nbsp; &amp;nbsp; &amp;nbsp; &amp;nbsp; &amp;nbsp;&amp;nbsp;&lt;/span&gt;&lt;span style=&quot;font-size: 18px;&quot;&gt;&amp;nbsp; &amp;nbsp; &amp;nbsp; &amp;nbsp; &amp;nbsp; &amp;nbsp; &amp;nbsp; &amp;nbsp; &amp;nbsp;&amp;nbsp;&lt;/span&gt;&lt;span style=&quot;font-size: 18px;&quot;&gt;&amp;nbsp; &amp;nbsp; &amp;nbsp; &amp;nbsp; &amp;nbsp; &amp;nbsp; &amp;nbsp; &amp;nbsp; &amp;nbsp;&amp;nbsp;&lt;/span&gt;&lt;span style=&quot;font-size: 18px;&quot;&gt;&amp;nbsp; &amp;nbsp; &amp;nbsp; &amp;nbsp; &amp;nbsp; &amp;nbsp; &amp;nbsp; &amp;nbsp;&lt;/span&gt;&lt;span style=&quot;font-size: 18px;&quot;&gt;&amp;nbsp; &amp;nbsp; &amp;nbsp;&lt;/span&gt;&lt;span style=&quot;font-size: 18px;&quot;&gt;&amp;nbsp; &amp;nbsp;&lt;/span&gt;" style="text;html=1;align=center;verticalAlign=middle;resizable=0;points=[];autosize=1;strokeColor=#b85450;fillColor=#f8cecc;" vertex="1" parent="1">
          <mxGeometry x="480" y="1150" width="920" height="40" as="geometry" />
        </mxCell>
        <mxCell id="NKMNRSQrKbPqfr3Vd2w4-24" value="&lt;font style=&quot;font-size: 18px;&quot;&gt;主GPU&amp;nbsp; &amp;nbsp; &amp;nbsp; &amp;nbsp; &amp;nbsp; &amp;nbsp; &amp;nbsp; &amp;nbsp; &amp;nbsp;&amp;nbsp;&lt;/font&gt;&lt;span style=&quot;font-size: 18px;&quot;&gt;&amp;nbsp; &amp;nbsp; &amp;nbsp; &amp;nbsp; &amp;nbsp; &amp;nbsp; &amp;nbsp; &amp;nbsp; &amp;nbsp;&amp;nbsp;&lt;/span&gt;&lt;span style=&quot;font-size: 18px;&quot;&gt;&amp;nbsp; &amp;nbsp; &amp;nbsp; &amp;nbsp; &amp;nbsp; &amp;nbsp; &amp;nbsp; &amp;nbsp; &amp;nbsp;&amp;nbsp;&lt;/span&gt;&lt;span style=&quot;font-size: 18px;&quot;&gt;&amp;nbsp; &amp;nbsp; &amp;nbsp; &amp;nbsp; &amp;nbsp; &amp;nbsp; &amp;nbsp; &amp;nbsp; &amp;nbsp;&amp;nbsp;&lt;/span&gt;&lt;span style=&quot;font-size: 18px;&quot;&gt;&amp;nbsp; &amp;nbsp; &amp;nbsp; &amp;nbsp; &amp;nbsp; &amp;nbsp; &amp;nbsp; &amp;nbsp; &amp;nbsp;&amp;nbsp;&lt;/span&gt;&lt;span style=&quot;font-size: 18px;&quot;&gt;&amp;nbsp; &amp;nbsp; &amp;nbsp; &amp;nbsp; &amp;nbsp; &amp;nbsp; &amp;nbsp; &amp;nbsp; &amp;nbsp;&amp;nbsp;&lt;/span&gt;&lt;span style=&quot;font-size: 18px;&quot;&gt;&amp;nbsp; &amp;nbsp; &amp;nbsp; &amp;nbsp; &amp;nbsp; &amp;nbsp; &amp;nbsp; &amp;nbsp; &amp;nbsp;&amp;nbsp;&lt;/span&gt;&lt;span style=&quot;font-size: 18px;&quot;&gt;&amp;nbsp; &amp;nbsp; &amp;nbsp; &amp;nbsp; &amp;nbsp; &amp;nbsp; &amp;nbsp; &amp;nbsp; &amp;nbsp;&amp;nbsp;&lt;/span&gt;&lt;span style=&quot;font-size: 18px;&quot;&gt;&amp;nbsp; &amp;nbsp; &amp;nbsp; &amp;nbsp; &amp;nbsp; &amp;nbsp; &amp;nbsp; &amp;nbsp; &amp;nbsp;&amp;nbsp;&lt;/span&gt;&lt;span style=&quot;font-size: 18px;&quot;&gt;&amp;nbsp; &amp;nbsp; &amp;nbsp; &amp;nbsp; &amp;nbsp; &amp;nbsp; &amp;nbsp; &amp;nbsp; &amp;nbsp;&amp;nbsp;&lt;/span&gt;&lt;span style=&quot;font-size: 18px;&quot;&gt;&amp;nbsp; &amp;nbsp; &amp;nbsp; &amp;nbsp; &amp;nbsp; &amp;nbsp; &amp;nbsp; &amp;nbsp; &amp;nbsp;&amp;nbsp;&lt;/span&gt;&lt;span style=&quot;font-size: 18px;&quot;&gt;&amp;nbsp; &amp;nbsp; &amp;nbsp; &amp;nbsp; &amp;nbsp;&amp;nbsp;&lt;/span&gt;" style="text;html=1;align=center;verticalAlign=middle;resizable=0;points=[];autosize=1;strokeColor=#b85450;fillColor=#f8cecc;" vertex="1" parent="1">
          <mxGeometry x="480" y="950" width="1120" height="40" as="geometry" />
        </mxCell>
        <mxCell id="NKMNRSQrKbPqfr3Vd2w4-23" value="&lt;font style=&quot;font-size: 18px;&quot;&gt;RHI&amp;nbsp; &amp;nbsp; &amp;nbsp; &amp;nbsp; &amp;nbsp; &amp;nbsp; &amp;nbsp; &amp;nbsp; &amp;nbsp;&amp;nbsp;&lt;/font&gt;&lt;span style=&quot;font-size: 18px;&quot;&gt;&amp;nbsp; &amp;nbsp; &amp;nbsp; &amp;nbsp; &amp;nbsp; &amp;nbsp; &amp;nbsp; &amp;nbsp; &amp;nbsp;&amp;nbsp;&lt;/span&gt;&lt;span style=&quot;font-size: 18px;&quot;&gt;&amp;nbsp; &amp;nbsp; &amp;nbsp; &amp;nbsp; &amp;nbsp; &amp;nbsp; &amp;nbsp; &amp;nbsp; &amp;nbsp;&amp;nbsp;&lt;/span&gt;&lt;span style=&quot;font-size: 18px;&quot;&gt;&amp;nbsp; &amp;nbsp; &amp;nbsp; &amp;nbsp; &amp;nbsp; &amp;nbsp; &amp;nbsp; &amp;nbsp; &amp;nbsp;&amp;nbsp;&lt;/span&gt;&lt;span style=&quot;font-size: 18px;&quot;&gt;&amp;nbsp; &amp;nbsp; &amp;nbsp; &amp;nbsp; &amp;nbsp; &amp;nbsp; &amp;nbsp; &amp;nbsp; &amp;nbsp;&amp;nbsp;&lt;/span&gt;&lt;span style=&quot;font-size: 18px;&quot;&gt;&amp;nbsp; &amp;nbsp; &amp;nbsp; &amp;nbsp; &amp;nbsp; &amp;nbsp; &amp;nbsp; &amp;nbsp; &amp;nbsp;&amp;nbsp;&lt;/span&gt;&lt;span style=&quot;font-size: 18px;&quot;&gt;&amp;nbsp; &amp;nbsp; &amp;nbsp; &amp;nbsp; &amp;nbsp; &amp;nbsp; &amp;nbsp; &amp;nbsp; &amp;nbsp;&amp;nbsp;&lt;/span&gt;&lt;span style=&quot;font-size: 18px;&quot;&gt;&amp;nbsp; &amp;nbsp; &amp;nbsp; &amp;nbsp; &amp;nbsp; &amp;nbsp; &amp;nbsp; &amp;nbsp; &amp;nbsp;&amp;nbsp;&lt;/span&gt;&lt;span style=&quot;font-size: 18px;&quot;&gt;&amp;nbsp; &amp;nbsp; &amp;nbsp; &amp;nbsp; &amp;nbsp; &amp;nbsp; &amp;nbsp; &amp;nbsp; &amp;nbsp;&amp;nbsp;&lt;/span&gt;&lt;span style=&quot;font-size: 18px;&quot;&gt;&amp;nbsp; &amp;nbsp; &amp;nbsp; &amp;nbsp; &amp;nbsp; &amp;nbsp; &amp;nbsp; &amp;nbsp; &amp;nbsp;&amp;nbsp;&lt;/span&gt;&lt;span style=&quot;font-size: 18px;&quot;&gt;&amp;nbsp; &amp;nbsp; &amp;nbsp; &amp;nbsp; &amp;nbsp; &amp;nbsp; &amp;nbsp; &amp;nbsp; &amp;nbsp;&amp;nbsp;&lt;/span&gt;&lt;span style=&quot;font-size: 18px;&quot;&gt;&amp;nbsp; &amp;nbsp; &amp;nbsp; &amp;nbsp; &amp;nbsp; &amp;nbsp; &amp;nbsp; &amp;nbsp; &amp;nbsp;&amp;nbsp;&lt;/span&gt;" style="text;html=1;align=center;verticalAlign=middle;resizable=0;points=[];autosize=1;strokeColor=#b85450;fillColor=#f8cecc;" vertex="1" parent="1">
          <mxGeometry x="480" y="1050" width="1130" height="40" as="geometry" />
        </mxCell>
        <mxCell id="NKMNRSQrKbPqfr3Vd2w4-1" value="Render Scene" style="whiteSpace=wrap;html=1;fillColor=#dae8fc;strokeColor=#6c8ebf;" vertex="1" parent="1">
          <mxGeometry x="840" y="950" width="230" height="40" as="geometry" />
        </mxCell>
        <mxCell id="NKMNRSQrKbPqfr3Vd2w4-2" value="Render Scene" style="whiteSpace=wrap;html=1;fillColor=#dae8fc;strokeColor=#6c8ebf;" vertex="1" parent="1">
          <mxGeometry x="1070" y="950" width="130" height="40" as="geometry" />
        </mxCell>
        <mxCell id="NKMNRSQrKbPqfr3Vd2w4-3" value="Render Scene" style="whiteSpace=wrap;html=1;fillColor=#dae8fc;strokeColor=#6c8ebf;" vertex="1" parent="1">
          <mxGeometry x="580" y="1050" width="90" height="40" as="geometry" />
        </mxCell>
        <mxCell id="NKMNRSQrKbPqfr3Vd2w4-4" value="Render Scene" style="whiteSpace=wrap;html=1;fillColor=#CCFFE6;" vertex="1" parent="1">
          <mxGeometry x="670" y="1050" width="140" height="40" as="geometry" />
        </mxCell>
        <mxCell id="NKMNRSQrKbPqfr3Vd2w4-5" value="Transfer&lt;br&gt;Resource" style="whiteSpace=wrap;html=1;fillColor=#CCFFE6;" vertex="1" parent="1">
          <mxGeometry x="810" y="1050" width="90" height="40" as="geometry" />
        </mxCell>
        <mxCell id="NKMNRSQrKbPqfr3Vd2w4-6" value="Render Scene" style="whiteSpace=wrap;html=1;fillColor=#dae8fc;strokeColor=#6c8ebf;" vertex="1" parent="1">
          <mxGeometry x="900" y="1050" width="140" height="40" as="geometry" />
        </mxCell>
        <mxCell id="NKMNRSQrKbPqfr3Vd2w4-7" value="Render Scene" style="whiteSpace=wrap;html=1;fillColor=#dae8fc;strokeColor=#6c8ebf;" vertex="1" parent="1">
          <mxGeometry x="1040" y="1050" width="140" height="40" as="geometry" />
        </mxCell>
        <mxCell id="NKMNRSQrKbPqfr3Vd2w4-8" value="Render Scene" style="whiteSpace=wrap;html=1;fillColor=#CCFFE6;" vertex="1" parent="1">
          <mxGeometry x="860" y="1150" width="280" height="40" as="geometry" />
        </mxCell>
        <mxCell id="NKMNRSQrKbPqfr3Vd2w4-9" value="Render Scene" style="whiteSpace=wrap;html=1;fillColor=#dae8fc;strokeColor=#6c8ebf;" vertex="1" parent="1">
          <mxGeometry x="1430" y="950" width="180" height="40" as="geometry" />
        </mxCell>
        <mxCell id="NKMNRSQrKbPqfr3Vd2w4-10" value="" style="endArrow=classic;html=1;rounded=0;exitX=1;exitY=1;exitDx=0;exitDy=0;entryX=0;entryY=0;entryDx=0;entryDy=0;" edge="1" parent="1" source="NKMNRSQrKbPqfr3Vd2w4-4" target="NKMNRSQrKbPqfr3Vd2w4-8">
          <mxGeometry width="50" height="50" relative="1" as="geometry">
            <mxPoint x="570" y="1220" as="sourcePoint" />
            <mxPoint x="620" y="1170" as="targetPoint" />
            <Array as="points">
              <mxPoint x="810" y="1120" />
              <mxPoint x="860" y="1120" />
            </Array>
          </mxGeometry>
        </mxCell>
        <mxCell id="NKMNRSQrKbPqfr3Vd2w4-11" value="" style="endArrow=classic;html=1;rounded=0;exitX=0;exitY=0;exitDx=0;exitDy=0;entryX=0;entryY=1;entryDx=0;entryDy=0;" edge="1" parent="1" source="NKMNRSQrKbPqfr3Vd2w4-4" target="NKMNRSQrKbPqfr3Vd2w4-1">
          <mxGeometry width="50" height="50" relative="1" as="geometry">
            <mxPoint x="690" y="980" as="sourcePoint" />
            <mxPoint x="740" y="930" as="targetPoint" />
            <Array as="points">
              <mxPoint x="670" y="1020" />
              <mxPoint x="840" y="1020" />
            </Array>
          </mxGeometry>
        </mxCell>
        <mxCell id="NKMNRSQrKbPqfr3Vd2w4-12" value="" style="endArrow=classic;html=1;rounded=0;exitX=0;exitY=0;exitDx=0;exitDy=0;entryX=0;entryY=1;entryDx=0;entryDy=0;" edge="1" parent="1" source="NKMNRSQrKbPqfr3Vd2w4-7" target="NKMNRSQrKbPqfr3Vd2w4-2">
          <mxGeometry width="50" height="50" relative="1" as="geometry">
            <mxPoint x="1360" y="1160" as="sourcePoint" />
            <mxPoint x="1410" y="1110" as="targetPoint" />
            <Array as="points">
              <mxPoint x="1040" y="1020" />
              <mxPoint x="1070" y="1020" />
            </Array>
          </mxGeometry>
        </mxCell>
        <mxCell id="NKMNRSQrKbPqfr3Vd2w4-13" value="Wait" style="whiteSpace=wrap;html=1;fillColor=#dae8fc;strokeColor=#6c8ebf;" vertex="1" parent="1">
          <mxGeometry x="1180" y="1050" width="60" height="40" as="geometry" />
        </mxCell>
        <mxCell id="NKMNRSQrKbPqfr3Vd2w4-14" value="" style="endArrow=classic;html=1;rounded=0;exitX=1;exitY=0;exitDx=0;exitDy=0;entryX=0;entryY=1;entryDx=0;entryDy=0;" edge="1" parent="1" source="NKMNRSQrKbPqfr3Vd2w4-13" target="NKMNRSQrKbPqfr3Vd2w4-15">
          <mxGeometry width="50" height="50" relative="1" as="geometry">
            <mxPoint x="1430" y="1160" as="sourcePoint" />
            <mxPoint x="1330" y="1050" as="targetPoint" />
            <Array as="points">
              <mxPoint x="1240" y="1020" />
              <mxPoint x="1380" y="1020" />
            </Array>
          </mxGeometry>
        </mxCell>
        <mxCell id="NKMNRSQrKbPqfr3Vd2w4-15" value="Wait" style="whiteSpace=wrap;html=1;fillColor=#dae8fc;strokeColor=#6c8ebf;" vertex="1" parent="1">
          <mxGeometry x="1380" y="950" width="50" height="40" as="geometry" />
        </mxCell>
        <mxCell id="NKMNRSQrKbPqfr3Vd2w4-16" value="Transfer Resource" style="whiteSpace=wrap;html=1;fillColor=#CCFFE6;" vertex="1" parent="1">
          <mxGeometry x="1140" y="1150" width="120" height="40" as="geometry" />
        </mxCell>
        <mxCell id="NKMNRSQrKbPqfr3Vd2w4-21" style="edgeStyle=orthogonalEdgeStyle;rounded=0;orthogonalLoop=1;jettySize=auto;html=1;entryX=0.5;entryY=0;entryDx=0;entryDy=0;dashed=1;" edge="1" parent="1" source="NKMNRSQrKbPqfr3Vd2w4-17" target="NKMNRSQrKbPqfr3Vd2w4-15">
          <mxGeometry relative="1" as="geometry">
            <Array as="points">
              <mxPoint x="1285" y="1230" />
              <mxPoint x="1670" y="1230" />
              <mxPoint x="1670" y="910" />
              <mxPoint x="1405" y="910" />
            </Array>
          </mxGeometry>
        </mxCell>
        <mxCell id="NKMNRSQrKbPqfr3Vd2w4-17" value="Signal" style="whiteSpace=wrap;html=1;fillColor=#CCFFE6;" vertex="1" parent="1">
          <mxGeometry x="1260" y="1150" width="50" height="40" as="geometry" />
        </mxCell>
        <mxCell id="NKMNRSQrKbPqfr3Vd2w4-19" value="Render Scene" style="whiteSpace=wrap;html=1;fillColor=#dae8fc;strokeColor=#6c8ebf;" vertex="1" parent="1">
          <mxGeometry x="1200" y="950" width="180" height="40" as="geometry" />
        </mxCell>
        <mxCell id="NKMNRSQrKbPqfr3Vd2w4-20" value="Render Scene" style="whiteSpace=wrap;html=1;fillColor=#dae8fc;strokeColor=#6c8ebf;" vertex="1" parent="1">
          <mxGeometry x="1240" y="1050" width="160" height="40" as="geometry" />
        </mxCell>
        <mxCell id="NKMNRSQrKbPqfr3Vd2w4-26" value="Render Next Frame" style="whiteSpace=wrap;html=1;fillColor=#CCFFE6;" vertex="1" parent="1">
          <mxGeometry x="1310" y="1150" width="300" height="40" as="geometry" />
        </mxCell>
        <mxCell id="NKMNRSQrKbPqfr3Vd2w4-27" value="" style="endArrow=classic;html=1;rounded=0;exitX=1;exitY=0;exitDx=0;exitDy=0;entryX=0;entryY=1;entryDx=0;entryDy=0;" edge="1" parent="1" source="NKMNRSQrKbPqfr3Vd2w4-7" target="NKMNRSQrKbPqfr3Vd2w4-19">
          <mxGeometry width="50" height="50" relative="1" as="geometry">
            <mxPoint x="1130" y="880" as="sourcePoint" />
            <mxPoint x="1180" y="830" as="targetPoint" />
            <Array as="points">
              <mxPoint x="1180" y="1020" />
              <mxPoint x="1200" y="1020" />
            </Array>
          </mxGeometry>
        </mxCell>
        <mxCell id="NKMNRSQrKbPqfr3Vd2w4-28" value="" style="endArrow=classic;html=1;rounded=0;exitX=1;exitY=0;exitDx=0;exitDy=0;entryX=1;entryY=1;entryDx=0;entryDy=0;" edge="1" parent="1" source="NKMNRSQrKbPqfr3Vd2w4-20" target="NKMNRSQrKbPqfr3Vd2w4-15">
          <mxGeometry width="50" height="50" relative="1" as="geometry">
            <mxPoint x="1110" y="860" as="sourcePoint" />
            <mxPoint x="1160" y="810" as="targetPoint" />
            <Array as="points">
              <mxPoint x="1400" y="1020" />
              <mxPoint x="1430" y="1020" />
            </Array>
          </mxGeometry>
        </mxCell>
        <mxCell id="NKMNRSQrKbPqfr3Vd2w4-31" value="" style="endArrow=classic;html=1;rounded=0;exitX=1;exitY=1;exitDx=0;exitDy=0;entryX=0.976;entryY=-0.031;entryDx=0;entryDy=0;entryPerimeter=0;" edge="1" parent="1" source="NKMNRSQrKbPqfr3Vd2w4-5" target="NKMNRSQrKbPqfr3Vd2w4-8">
          <mxGeometry width="50" height="50" relative="1" as="geometry">
            <mxPoint x="910" y="1310" as="sourcePoint" />
            <mxPoint x="960" y="1260" as="targetPoint" />
            <Array as="points">
              <mxPoint x="900" y="1120" />
              <mxPoint x="1133" y="1120" />
            </Array>
          </mxGeometry>
        </mxCell>
      </root>
    </mxGraphModel>
  </diagram>
</mxfile>
